<?xml version="1.0" encoding="UTF-8" standalone="no"?><!DOCTYPE svg PUBLIC "-//W3C//DTD SVG 1.1//EN" "http://www.w3.org/Graphics/SVG/1.1/DTD/svg11.dtd"><svg width="100%" height="100%" viewBox="0 0 115 42" version="1.1" xmlns="http://www.w3.org/2000/svg" xmlns:xlink="http://www.w3.org/1999/xlink" xml:space="preserve" xmlns:serif="http://www.serif.com/" style="fill-rule:evenodd;clip-rule:evenodd;stroke-linejoin:round;stroke-miterlimit:2;"><g><g><circle cx="15.639" cy="15.639" r="15.639" style="fill:#fff;"/><path d="M66.457,0c-8.579,0 -15.639,7.06 -15.639,15.639c0,8.579 7.06,15.639 15.639,15.639l0,-31.278Z" style="fill:#fff;fill-rule:nonzero;"/><path d="M66.451,41.534c8.58,0 15.639,-7.06 15.639,-15.639c0,-8.58 -7.059,-15.64 -15.639,-15.64l0,31.279Z" style="fill:#50c6db;fill-rule:nonzero;"/><path d="M31.278,41.532l-31.278,0l0,-25.895l31.278,25.895Z" style="fill:#50c6db;fill-rule:nonzero;"/><rect x="86.414" y="0" width="28.586" height="10.965" style="fill:#50c6db;"/><rect x="86.414" y="30.568" width="28.586" height="10.965" style="fill:#50c6db;"/><rect x="86.414" y="15.284" width="28.586" height="10.965" style="fill:#fff;"/><path d="M35.531,0l0,41.534l10.965,0l0,-41.534l-10.965,0Z" style="fill:#50c6db;"/></g></g></svg>