<?xml version="1.0" encoding="UTF-8" standalone="no"?><!DOCTYPE svg PUBLIC "-//W3C//DTD SVG 1.1//EN" "http://www.w3.org/Graphics/SVG/1.1/DTD/svg11.dtd"><svg width="100%" height="100%" viewBox="0 0 92 61" version="1.1" xmlns="http://www.w3.org/2000/svg" xmlns:xlink="http://www.w3.org/1999/xlink" xml:space="preserve" xmlns:serif="http://www.serif.com/" style="fill-rule:evenodd;clip-rule:evenodd;stroke-linejoin:round;stroke-miterlimit:2;"><path d="M59.453,60.198l-2.05,-0.186l-1.864,-0.373l-1.677,-0.559l-1.678,-0.746l-1.677,-1.118l-3.541,-4.1l-0.746,-1.491l-0.559,-1.677l-0.745,-3.728l-0,-3.727l0.186,-1.677l0.373,-1.678l0.559,-1.677l0.559,-1.864l0.559,-1.677l1.678,-3.355l0.931,-1.491l1.119,-1.491l0.931,-1.677l1.119,-1.491l3.914,-4.473l1.304,-1.118l2.609,-2.61l1.491,-1.304l1.491,-1.118l3.169,-2.423l1.677,-1.305l1.864,-1.118l1.304,-0.932l2.982,-1.864l1.678,-0.745l1.491,-0.932l1.491,-0.746l8.386,-3.727l0.932,1.677l0.932,1.864l0.932,1.677l0.932,1.864l-1.678,0.932l-1.677,1.118l-1.677,0.932l-1.491,1.118l-2.982,1.864l-2.423,2.05l-1.677,1.305l-2.796,2.423l-1.305,1.304l-1.304,1.118l-0.932,1.119l-1.491,1.863l-1.305,1.491l-1.118,1.491l-0.745,1.491l-0.932,1.678l-0.746,1.677l-0.372,1.305l1.677,0.745l1.491,0.932l1.304,1.118l2.237,2.609l0.932,1.678l0.745,1.863l0.373,1.678l0.186,1.864l-0.372,3.727l-0.746,1.864l-0.745,1.491l-1.119,1.677l-1.118,1.305l-1.491,1.304l-1.677,1.118l-1.491,0.746l-1.864,0.559l-1.864,0.373l-1.863,0.186Zm-44.916,0l-1.864,-0.186l-1.863,-0.373l-1.864,-0.559l-1.677,-0.746l-1.491,-1.118l-1.491,-1.491l-1.119,-1.304l-0.932,-1.305l-0.745,-1.491l-0.746,-1.677l-0.745,-3.728l0,-3.727l0.186,-1.677l0.373,-1.678l0.559,-1.677l0.559,-1.864l0.559,-1.677l1.678,-3.355l0.932,-1.491l1.118,-1.491l0.932,-1.677l1.118,-1.491l3.914,-4.473l1.304,-1.118l2.61,-2.61l1.491,-1.304l4.659,-3.541l1.677,-1.305l1.864,-1.118l1.305,-0.932l2.982,-1.864l1.677,-0.745l1.491,-0.932l1.491,-0.746l8.387,-3.727l0.931,1.677l0.932,1.864l0.932,1.677l0.932,1.864l-1.677,0.932l-1.678,1.118l-1.677,0.932l-1.491,1.118l-2.982,1.864l-2.423,2.05l-1.677,1.305l-2.796,2.423l-1.304,1.304l-1.305,1.118l-2.423,2.982l-1.304,1.491l-1.119,1.491l-0.745,1.491l-0.932,1.678l-0.745,1.677l-0.373,1.305l1.677,0.745l1.491,0.932l1.305,1.118l2.236,2.609l0.932,1.678l0.746,1.863l0.372,1.678l0.187,1.864l-0.373,3.727l-0.559,1.864l-0.932,1.491l-0.932,1.677l-1.304,1.305l-1.491,1.304l-1.491,1.118l-1.678,0.746l-1.677,0.559l-1.864,0.373l-2.05,0.186Z" style="fill:#5acde0;fill-rule:nonzero;"/></svg>